<svg width="24" height="24" viewBox="0 0 24 24" fill="none" xmlns="http://www.w3.org/2000/svg">
<g id="google-color-svgrepo-com 1" clip-path="url(#clip0_1857_24)">
<g id="Icons">
<g id="Color-">
<g id="Google">
<path id="Fill-1" fill-rule="evenodd" clip-rule="evenodd" d="M5.16363 11.9999C5.16363 11.2377 5.29021 10.5071 5.51613 9.82173L1.56172 6.802C0.791027 8.3668 0.356812 10.13 0.356812 11.9999C0.356812 13.8681 0.790493 15.6303 1.56012 17.194L5.51239 14.1684C5.28861 13.4863 5.16363 12.7583 5.16363 11.9999Z" fill="#FBBC05"/>
<path id="Fill-2" fill-rule="evenodd" clip-rule="evenodd" d="M12.1069 5.0666C13.7625 5.0666 15.258 5.65327 16.433 6.61327L19.8512 3.19993C17.7682 1.3866 15.0978 0.266602 12.1069 0.266602C7.46347 0.266602 3.47274 2.92207 1.56177 6.80207L5.51618 9.8218C6.42734 7.05594 9.02462 5.0666 12.1069 5.0666Z" fill="#EB4335"/>
<path id="Fill-3" fill-rule="evenodd" clip-rule="evenodd" d="M12.1069 18.9332C9.02462 18.9332 6.42733 16.9438 5.51618 14.178L1.56177 17.1972C3.47274 21.0777 7.46347 23.7332 12.1069 23.7332C14.9728 23.7332 17.7089 22.7156 19.7625 20.8089L16.0089 17.907C14.9498 18.5742 13.6162 18.9332 12.1069 18.9332Z" fill="#34A853"/>
<path id="Fill-4" fill-rule="evenodd" clip-rule="evenodd" d="M23.3227 12C23.3227 11.3067 23.2159 10.56 23.0557 9.8667H12.1068V14.4H18.4091C18.094 15.9456 17.2362 17.1339 16.0089 17.9072L19.7625 20.8091C21.9197 18.807 23.3227 15.8246 23.3227 12Z" fill="#4285F4"/>
</g>
</g>
</g>
</g>
<defs>
<clipPath id="clip0_1857_24">
<rect width="24" height="24" fill="white"/>
</clipPath>
</defs>
</svg>
