<svg width="26" height="26" viewBox="0 0 26 26" fill="none" xmlns="http://www.w3.org/2000/svg">
<g id="bell-svgrepo-com (1) 1">
<path id="Vector" fill-rule="evenodd" clip-rule="evenodd" d="M8.71307 5.60709C9.31175 5.14723 10.0202 4.80167 10.8481 4.58736C10.8383 4.50406 10.8333 4.41932 10.8333 4.33341C10.8333 3.1368 11.8035 2.16675 13 2.16675C14.1966 2.16675 15.1667 3.1368 15.1667 4.33341C15.1667 4.41932 15.1617 4.50406 15.1519 4.58736C15.9798 4.80167 16.6883 5.14723 17.287 5.60709C18.3441 6.41904 18.9563 7.50861 19.3185 8.59484C19.6781 9.67307 19.8079 10.7965 19.8711 11.7429C19.8968 12.127 19.9123 12.4964 19.926 12.8221L19.9353 13.0418C19.9523 13.4328 19.9691 13.7242 19.9979 13.9397C20.2099 15.5232 20.473 16.6339 20.8474 17.522C21.2134 18.3901 21.704 19.0886 22.4327 19.8174C22.7425 20.1272 22.8353 20.5932 22.6676 20.998C22.4999 21.4028 22.1049 21.6667 21.6667 21.6667H14.8769C15.0611 21.9855 15.1667 22.3554 15.1667 22.7501C15.1667 23.9467 14.1966 24.9167 13 24.9167C11.8035 24.9167 10.8333 23.9467 10.8333 22.7501C10.8333 22.3554 10.9388 21.9855 11.1232 21.6667H4.33337C3.8952 21.6667 3.50017 21.4028 3.3325 20.998C3.16482 20.5932 3.2575 20.1272 3.56733 19.8174C4.29752 19.0872 4.78682 18.3937 5.15182 17.5294C5.52543 16.6446 5.78868 15.5345 6.00213 13.9397C6.03098 13.7242 6.04776 13.4328 6.06479 13.0418L6.07411 12.8221C6.08774 12.4964 6.10319 12.127 6.12889 11.7429C6.19223 10.7965 6.32191 9.67307 6.68152 8.59484C7.04379 7.50861 7.65597 6.41904 8.71307 5.60709ZM6.57441 19.5001C6.78782 19.147 6.97813 18.774 7.1478 18.3723C7.62974 17.2311 7.92526 15.9037 8.14966 14.2272C8.1933 13.901 8.21289 13.5153 8.22941 13.136L8.23935 12.902C8.25292 12.5781 8.26701 12.242 8.29073 11.8875C8.34974 11.0057 8.46421 10.0979 8.73689 9.28033C9.00691 8.47072 9.41514 7.79988 10.0329 7.32536C10.6436 6.85631 11.5617 6.50008 13 6.50008C14.4384 6.50008 15.3565 6.85631 15.9671 7.32536C16.585 7.79988 16.9932 8.47072 17.2631 9.28033C17.5358 10.0979 17.6503 11.0057 17.7094 11.8875C17.7331 12.242 17.7472 12.5781 17.7607 12.902L17.7707 13.136C17.7871 13.5153 17.8067 13.901 17.8504 14.2272C18.0735 15.8937 18.369 17.2204 18.8509 18.3636C19.0215 18.7682 19.2129 19.1441 19.4278 19.5001H6.57441Z" fill="white"/>
</g>
</svg>
