<svg width="24" height="24" viewBox="0 0 24 24" fill="none" xmlns="http://www.w3.org/2000/svg">
<g id="calendar-svgrepo-com 1" clip-path="url(#clip0_2158_944)">
<g id="g10449">
<path id="rect348" d="M5.76758 0.000488283C5.55739 0.000479799 5.34926 0.0418468 5.15508 0.122227C4.96089 0.202607 4.78444 0.320427 4.63582 0.468958C4.48719 0.617489 4.3693 0.793823 4.28886 0.987892C4.20843 1.18196 4.16703 1.38996 4.16703 1.60002V2.8251H1.36805C0.943585 2.82514 0.536522 2.99368 0.236385 3.29364C-0.0637515 3.5936 -0.232383 4.00042 -0.232422 4.42463V22.4005C-0.232383 22.8247 -0.0637515 23.2315 0.236385 23.5315C0.536522 23.8314 0.943585 24 1.36805 24H22.167C22.5915 24 22.9986 23.8315 23.2987 23.5315C23.5989 23.2315 23.7675 22.8247 23.7676 22.4005V4.42463C23.7675 4.00041 23.5989 3.59358 23.2987 3.29361C22.9986 2.99365 22.5915 2.82512 22.167 2.8251H19.368V1.60002C19.368 1.38997 19.3267 1.18197 19.2462 0.98791C19.1658 0.793847 19.0479 0.617516 18.8993 0.468986C18.7507 0.320456 18.5742 0.202634 18.3801 0.12225C18.1859 0.0418646 17.9778 0.000490041 17.7676 0.000488283C17.5574 0.000479799 17.3493 0.0418468 17.1551 0.122227C16.9609 0.202607 16.7844 0.320427 16.6358 0.468958C16.4872 0.617489 16.3693 0.793823 16.2889 0.987892C16.2084 1.18196 16.167 1.38996 16.167 1.60002V2.8251H13.368V1.60002C13.368 1.38997 13.3267 1.18197 13.2462 0.98791C13.1658 0.793847 13.0479 0.617516 12.8993 0.468986C12.7507 0.320456 12.5742 0.202634 12.3801 0.12225C12.1859 0.0418646 11.9778 0.000490041 11.7676 0.000488283C11.5574 0.000479749 11.3493 0.0418467 11.1551 0.122227C10.9609 0.202607 10.7844 0.320427 10.6358 0.468958C10.4872 0.617489 10.3693 0.793823 10.2889 0.987892C10.2084 1.18196 10.167 1.38996 10.167 1.60002V2.8251H7.36805V1.60002C7.36805 1.38997 7.32665 1.18197 7.24622 0.98791C7.16579 0.793847 7.0479 0.617516 6.89929 0.468986C6.75067 0.320456 6.57423 0.202634 6.38006 0.12225C6.18588 0.0418646 5.97776 0.000490041 5.76758 0.000488283ZM2.96852 9.11955H20.5666V20.801H2.96852V9.11955Z" fill="white"/>
<path id="rect1123-6" d="M15.1677 10.6001C15.0616 10.6001 14.9598 10.6423 14.8848 10.7173C14.8097 10.7923 14.7676 10.894 14.7676 11V13.9086C14.7676 14.0146 14.8098 14.1163 14.8848 14.1913C14.9598 14.2663 15.0616 14.3084 15.1677 14.3084H18.7675C18.8736 14.3084 18.9753 14.2663 19.0504 14.1913C19.1254 14.1163 19.1675 14.0146 19.1676 13.9086V11C19.1676 10.894 19.1254 10.7923 19.0504 10.7173C18.9753 10.6423 18.8736 10.6001 18.7675 10.6001H15.1677ZM15.5679 11.3999H18.3674V13.5086H15.5679V11.3999Z" fill="white"/>
<path id="rect1123-6-2" d="M9.96771 10.6001C9.7467 10.6001 9.56753 10.7792 9.56754 11V13.9086C9.56757 14.1294 9.74673 14.3084 9.96771 14.3084H13.5674C13.7884 14.3084 13.9676 14.1294 13.9676 13.9086V11C13.9676 10.7792 13.7884 10.6001 13.5674 10.6001H9.96771Z" fill="white"/>
<path id="rect1123-6-2-9" d="M4.76776 10.5459C4.54675 10.5459 4.36758 10.725 4.36758 10.9458V13.8544C4.36762 14.0752 4.54677 14.2542 4.76776 14.2542H8.36746C8.58844 14.2542 8.7676 14.0752 8.76763 13.8544V10.9458C8.76764 10.725 8.58847 10.5459 8.36746 10.5459H4.76776Z" fill="white"/>
<path id="rect1123-6-2-1" d="M9.96774 15.4917C9.74673 15.4917 9.56756 15.6708 9.56757 15.8916V18.8002C9.5676 19.021 9.74676 19.2 9.96774 19.2H13.5674C13.7884 19.2 13.9676 19.021 13.9676 18.8002V15.8916C13.9676 15.6708 13.7885 15.4917 13.5674 15.4917H9.96774Z" fill="white"/>
<path id="rect1123-6-2-1-7" d="M15.1677 15.5459C14.9467 15.5459 14.7675 15.725 14.7675 15.9458V18.8544C14.7676 19.0752 14.9467 19.2542 15.1677 19.2542H18.7674C18.9884 19.2542 19.1675 19.0752 19.1676 18.8544V15.9458C19.1676 15.725 18.9884 15.5459 18.7674 15.5459H15.1677Z" fill="white"/>
<path id="rect1123-6-2-9-2" d="M4.76776 15.4375C4.54675 15.4375 4.36758 15.6166 4.36758 15.8374V18.746C4.36762 18.9668 4.54677 19.1458 4.76776 19.1458H8.36746C8.58845 19.1458 8.7676 18.9668 8.76764 18.746V15.8374C8.76764 15.6166 8.58847 15.4375 8.36746 15.4375H4.76776Z" fill="white"/>
</g>
</g>
<defs>
<clipPath id="clip0_2158_944">
<rect width="24" height="24" fill="white" transform="translate(-0.232422)"/>
</clipPath>
</defs>
</svg>
