<svg width="24" height="24" viewBox="0 0 24 24" fill="none" xmlns="http://www.w3.org/2000/svg">
<g id="books-svgrepo-com 1" clip-path="url(#clip0_1953_533)">
<path id="Vector" d="M22.9793 19.7708L18.321 2.38352C18.033 1.33502 17.088 0.577518 15.9668 0.577518C15.7425 0.577518 15.525 0.607518 15.3188 0.664518L15.336 0.660768L13.164 1.24277C12.9915 1.29152 12.8423 1.35152 12.7005 1.42502L12.714 1.41902C12.2685 0.895517 11.61 0.564018 10.8743 0.561768H8.625C8.055 0.564018 7.53225 0.764268 7.1205 1.09652L7.125 1.09277C6.71775 0.764268 6.195 0.564018 5.62575 0.561768H3.375C2.0295 0.563268 0.939 1.65377 0.9375 2.99927V20.9993C0.939 22.3448 2.0295 23.4353 3.375 23.4368H5.625C6.195 23.4345 6.71775 23.235 7.1295 22.9028L7.125 22.9065C7.53225 23.235 8.055 23.4345 8.62425 23.4375H10.8735C12.219 23.436 13.3095 22.3455 13.311 21V11.2103L16.0988 21.615C16.3853 22.6635 17.3295 23.421 18.4508 23.421C18.6758 23.421 18.8933 23.3903 19.1003 23.3333L19.083 23.337L21.2565 22.7558C22.305 22.4663 23.0618 21.5213 23.0618 20.4C23.0618 20.1765 23.0318 19.9598 22.9755 19.7535L22.9793 19.7708ZM14.2695 7.54577L17.529 6.67202L20.1495 16.4535L16.8908 17.3265L14.2695 7.54577ZM13.6493 3.05402L15.8205 2.47277C15.8625 2.46152 15.9113 2.45552 15.9615 2.45552C16.221 2.45552 16.4408 2.62877 16.5098 2.86577L16.5105 2.86952L17.0445 4.86152L13.785 5.73527L13.311 3.96752V3.33152C13.3815 3.19727 13.5015 3.09752 13.6455 3.05402H13.6493ZM8.625 2.43752H10.8735C11.1825 2.44202 11.4315 2.69102 11.436 2.99927V5.06177L8.0625 5.06252V3.00002C8.067 2.69102 8.316 2.44202 8.62425 2.43752H8.625ZM6.1875 17.0625H2.8125V6.93752L6.1875 6.93677V17.0625ZM8.0625 6.93752L11.436 6.93677V17.0625H8.0625V6.93752ZM3.375 2.43752H5.625C5.934 2.44202 6.183 2.69102 6.1875 2.99927V5.06177L2.8125 5.06252V3.00002C2.817 2.69102 3.06675 2.44202 3.375 2.43752ZM5.625 21.5625H3.375C3.066 21.558 2.817 21.309 2.8125 21.0008V18.9375H6.1875V21C6.183 21.309 5.93325 21.558 5.625 21.5625ZM10.8735 21.5625H8.625C8.316 21.558 8.067 21.309 8.0625 21.0008V18.9375H11.436V21C11.4315 21.309 11.1818 21.558 10.8735 21.5625ZM20.7698 20.946L18.5978 21.5273C18.555 21.5385 18.5063 21.5453 18.456 21.5453C18.3518 21.5453 18.2543 21.5175 18.1703 21.4688L18.1733 21.4703C18.045 21.396 17.9498 21.276 17.9108 21.1328L17.91 21.129L17.3768 19.1378L20.6355 18.2648L21.1695 20.2575C21.1808 20.2995 21.1868 20.3475 21.1868 20.397C21.1868 20.6573 21.0128 20.8763 20.775 20.9445L20.7713 20.9453L20.7698 20.946Z" fill="white"/>
</g>
<defs>
<clipPath id="clip0_1953_533">
<rect width="24" height="24" fill="white"/>
</clipPath>
</defs>
</svg>
