<svg width="24" height="24" viewBox="0 0 24 24" fill="none" xmlns="http://www.w3.org/2000/svg">
<g id="eye-svgrepo-com (2) 3">
<path id="Vector" fill-rule="evenodd" clip-rule="evenodd" d="M4.09801 12.2903C4.01761 12.1871 3.94201 12.0899 3.87481 11.9999C4.52939 11.133 5.25295 10.3203 6.03841 9.56993C7.71481 7.97753 9.82441 6.59993 12 6.59993C14.1756 6.59993 16.284 7.97753 17.9616 9.56993C18.747 10.3204 19.4706 11.133 20.1252 11.9999C19.4703 12.8666 18.7467 13.6792 17.9616 14.4299C16.284 16.0223 14.1756 17.3999 12 17.3999C9.82441 17.3999 7.71601 16.0223 6.03841 14.4299C5.34129 13.764 4.69282 13.049 4.09801 12.2903ZM22.6056 11.3447L21.6 11.9999L22.6056 12.6551L22.6032 12.6587L22.5996 12.6635L22.5876 12.6827L22.5432 12.7475C22.3027 13.0968 22.0513 13.4386 21.7896 13.7723C21.1231 14.6225 20.3965 15.4238 19.6152 16.1699C17.8176 17.8775 15.1272 19.7999 12 19.7999C8.87281 19.7999 6.18241 17.8775 4.38481 16.1699C3.29713 15.1296 2.31625 13.9831 1.45681 12.7475C1.4419 12.726 1.4271 12.7044 1.41241 12.6827L1.40041 12.6635L1.39681 12.6587L1.39561 12.6563C1.39561 12.6551 1.39441 12.6551 2.40001 11.9999L1.39441 11.3447L1.39681 11.3411L1.40041 11.3363L1.41241 11.3171C1.47827 11.2177 1.54629 11.1196 1.61641 11.0231C2.43773 9.87483 3.36499 8.80615 4.38601 7.83113C6.18121 6.11993 8.87281 4.19873 12 4.19873C15.1272 4.19873 17.8176 6.12113 19.6152 7.82873C20.7029 8.86902 21.6838 10.0155 22.5432 11.2511L22.5876 11.3159L22.5996 11.3351L22.6032 11.3399L22.6044 11.3423L22.6056 11.3447ZM21.6 11.9999L22.6056 11.3447L23.0316 11.9999L22.6056 12.6551L21.6 11.9999ZM1.39441 11.3447L2.40001 11.9999L1.39441 12.6551L0.968414 11.9999L1.39441 11.3447ZM10.8 11.9999C10.8 11.6817 10.9264 11.3764 11.1515 11.1514C11.3765 10.9264 11.6818 10.7999 12 10.7999C12.3183 10.7999 12.6235 10.9264 12.8485 11.1514C13.0736 11.3764 13.2 11.6817 13.2 11.9999C13.2 12.3182 13.0736 12.6234 12.8485 12.8485C12.6235 13.0735 12.3183 13.1999 12 13.1999C11.6818 13.1999 11.3765 13.0735 11.1515 12.8485C10.9264 12.6234 10.8 12.3182 10.8 11.9999ZM12 8.39993C11.0452 8.39993 10.1296 8.77922 9.45443 9.45435C8.7793 10.1295 8.40001 11.0452 8.40001 11.9999C8.40001 12.9547 8.7793 13.8704 9.45443 14.5455C10.1296 15.2206 11.0452 15.5999 12 15.5999C12.9548 15.5999 13.8705 15.2206 14.5456 14.5455C15.2207 13.8704 15.6 12.9547 15.6 11.9999C15.6 11.0452 15.2207 10.1295 14.5456 9.45435C13.8705 8.77922 12.9548 8.39993 12 8.39993Z" fill="white"/>
</g>
</svg>
