<svg width="24" height="22" viewBox="0 0 24 22" fill="none" xmlns="http://www.w3.org/2000/svg">
<path id="Vector" d="M7.2 11C9.52125 11 11.4 8.53973 11.4 5.5C11.4 2.46027 9.52125 0 7.2 0C4.87875 0 3 2.46027 3 5.5C3 8.53973 4.87875 11 7.2 11ZM10.08 12.5714H9.76875C8.98875 13.0625 8.1225 13.3571 7.2 13.3571C6.2775 13.3571 5.415 13.0625 4.63125 12.5714H4.32C1.935 12.5714 0 15.1054 0 18.2286V19.6429C0 20.9442 0.80625 22 1.8 22H12.6C13.5938 22 14.4 20.9442 14.4 19.6429V18.2286C14.4 15.1054 12.465 12.5714 10.08 12.5714ZM18 11C19.9875 11 21.6 8.88839 21.6 6.28571C21.6 3.68304 19.9875 1.57143 18 1.57143C16.0125 1.57143 14.4 3.68304 14.4 6.28571C14.4 8.88839 16.0125 11 18 11ZM19.8 12.5714H19.6575C19.1363 12.8071 18.585 12.9643 18 12.9643C17.415 12.9643 16.8638 12.8071 16.3425 12.5714H16.2C15.435 12.5714 14.73 12.8612 14.1113 13.3277C15.0263 14.6192 15.6 16.333 15.6 18.2286V20.1143C15.6 20.2223 15.5813 20.3254 15.5775 20.4286H22.2C23.1938 20.4286 24 19.3728 24 18.0714C24 15.0317 22.1213 12.5714 19.8 12.5714Z" fill="white"/>
</svg>
