<svg width="24" height="24" viewBox="0 0 24 24" fill="none" xmlns="http://www.w3.org/2000/svg">
<g id="signing-the-contract-svgrepo-com 1" clip-path="url(#clip0_2158_960)">
<g id="Group">
<g id="Layer_1_155_">
<g id="Group_2">
<path id="Vector" d="M13.3777 4.27295H5.19628C4.59372 4.27295 4.10504 4.76163 4.10504 5.36367C4.10504 5.96572 4.59372 6.4544 5.19628 6.4544H13.3777C13.9813 6.4544 14.469 5.96572 14.469 5.36367C14.4684 4.76163 13.9808 4.27295 13.3777 4.27295Z" fill="white"/>
<path id="Vector_2" d="M14.4684 9.45449C14.4684 8.85194 13.9808 8.36377 13.3772 8.36377H5.19628C4.59372 8.36377 4.10504 8.85245 4.10504 9.45449C4.10504 10.057 4.59372 10.5457 5.19628 10.5457H13.3777C13.9808 10.5457 14.4684 10.057 14.4684 9.45449Z" fill="white"/>
<path id="Vector_3" d="M9.28751 14.6363C9.89006 14.6363 10.3782 14.1476 10.3782 13.5456C10.3782 12.943 9.89006 12.4543 9.28751 12.4543H5.19628C4.59372 12.4543 4.10504 12.943 4.10504 13.5456C4.10504 14.1481 4.59372 14.6363 5.19628 14.6363H9.28751Z" fill="white"/>
<path id="Vector_4" d="M17.5219 18.3472L16.3775 19.1025V21.818H2.19609V2.18196H16.3775V6.49277L18.5595 2.71353V1.09072C18.5595 0.48817 18.0708 0 17.4683 0H1.10485C0.5023 0 0.0141296 0.488681 0.0141296 1.09072V22.9098C0.0141296 23.5123 0.5023 24.0005 1.10485 24.0005H17.4683C18.0713 24.0005 18.56 23.5118 18.56 22.9098V16.897L18.0386 17.7988C17.9115 18.0189 17.7328 18.2083 17.5219 18.3472Z" fill="white"/>
<path id="Vector_5" d="M23.9729 5.05218C23.9505 4.95413 23.7202 4.07277 22.3323 3.27107C20.9443 2.46988 20.066 2.7109 19.969 2.74103C19.8388 2.78239 19.729 2.87022 19.6606 2.98869L12.8426 14.7977C12.8002 14.8718 12.7752 14.954 12.77 15.0387L12.5147 19.3C12.5025 19.5063 12.6077 19.7014 12.7859 19.805C12.9656 19.9082 13.1867 19.901 13.3593 19.7882L16.922 17.4362C16.993 17.3902 17.0518 17.3274 17.0941 17.2544L23.9127 5.44333C23.9811 5.32486 24.002 5.18596 23.9729 5.05218ZM14.734 17.9003C14.5527 17.7538 14.3469 17.6154 14.1258 17.4872C13.9037 17.3591 13.681 17.2513 13.4635 17.1666L13.5396 15.8889C13.824 15.9262 14.2458 16.0416 14.7815 16.35C15.3166 16.659 15.6266 16.9674 15.8022 17.1946L14.734 17.9003Z" fill="white"/>
<path id="Vector_6" d="M7.61975 19.6768C7.6555 19.8959 7.90826 19.9638 8.07728 20.0343C8.24069 20.1032 8.43575 19.9725 8.57158 19.9066C9.40392 19.5017 10.5314 19.9776 11.423 19.9776C11.9505 19.9776 11.9505 19.1595 11.423 19.1595C10.3833 19.1595 9.5183 18.8966 8.48784 19.0666C8.48784 19.0069 8.46588 18.9262 8.40154 18.8164C8.20903 18.487 7.96392 18.3936 7.7183 18.4334C7.70196 18.3946 7.68613 18.3558 7.66316 18.3165C7.59882 18.2113 7.50894 18.1587 7.40784 18.1367C7.69533 17.6343 7.88069 17.1027 7.69226 16.6727C7.63456 16.542 7.47065 16.4751 7.3389 16.47C6.79252 16.4496 6.32375 17.023 5.97243 17.3672C5.09362 18.2287 4.3195 19.2065 3.57039 20.1798C3.24869 20.598 3.96001 21.0045 4.2766 20.5934C4.94043 19.7315 5.64358 18.8945 6.40035 18.1117C6.21805 18.4109 6.02452 18.7046 5.82077 18.9875C5.52971 19.4373 6.22469 19.8203 6.52699 19.4006C6.59899 19.2908 6.69039 19.2116 6.79048 19.1437C6.77056 19.1943 6.75013 19.2438 6.72971 19.2949C6.73073 19.2949 6.73175 19.2954 6.73277 19.2959C6.71694 19.3286 6.70111 19.3612 6.68835 19.3924C6.50554 19.8504 7.18826 20.0603 7.43643 19.7069C7.49924 19.6181 7.55745 19.5231 7.61005 19.4235C7.60648 19.492 7.60494 19.5839 7.61975 19.6768Z" fill="white"/>
</g>
</g>
</g>
</g>
<defs>
<clipPath id="clip0_2158_960">
<rect width="24" height="24" fill="white"/>
</clipPath>
</defs>
</svg>
