<svg width="24" height="24" viewBox="0 0 24 24" fill="none" xmlns="http://www.w3.org/2000/svg">
<g id="left-arrow-svgrepo-com 1" clip-path="url(#clip0_1967_620)">
<g id="Group">
<path id="Vector" d="M7.24312 12.4617L11.5071 15.6967C11.6162 15.7795 11.7262 15.8234 11.8249 15.8234C11.9256 15.8234 12.0134 15.7777 12.0722 15.6949C12.1284 15.6158 12.1569 15.5079 12.1569 15.3741V14.1355C12.1569 13.8096 12.422 13.5445 12.7478 13.5445H16.2652C16.6732 13.5445 17.0052 13.2124 17.0052 12.8044V11.196C17.0052 10.788 16.6732 10.4559 16.2652 10.4559H12.7478C12.422 10.4559 12.1569 10.1908 12.1569 9.86492V8.62625C12.1569 8.29508 11.9854 8.177 11.8249 8.177C11.7262 8.177 11.6163 8.22088 11.5071 8.30366L7.24317 11.5387C7.08304 11.6601 6.99487 11.824 6.99487 12.0004C6.99483 12.1764 7.08295 12.3403 7.24312 12.4617Z" fill="white"/>
<path id="Vector_2" d="M12 0C5.38325 0 0.00012207 5.38312 0.00012207 12C0.00012207 18.6169 5.38325 24 12 24C18.6168 24 23.9999 18.6169 23.9999 12C23.9999 5.38312 18.6168 0 12 0ZM12 3.13055C16.8907 3.13055 20.8695 7.10925 20.8695 12C20.8695 16.8908 16.8907 20.8695 12 20.8695C7.10937 20.8695 3.13048 16.8908 3.13048 12C3.13048 7.10925 7.10942 3.13055 12 3.13055Z" fill="white"/>
</g>
</g>
<defs>
<clipPath id="clip0_1967_620">
<rect width="24" height="24" fill="white"/>
</clipPath>
</defs>
</svg>
